<svg xmlns="http://www.w3.org/2000/svg" viewBox="0 0 512 512">
  <defs>
    <linearGradient id="grad" x1="0%" y1="0%" x2="100%" y2="100%">
      <stop offset="0%" style="stop-color:#3b82f6;stop-opacity:1" />
      <stop offset="100%" style="stop-color:#1d4ed8;stop-opacity:1" />
    </linearGradient>
  </defs>
  <rect width="512" height="512" rx="80" fill="url(#grad)"/>
  <g fill="#ffffff">
    <path d="M256 120c-75 0-136 61-136 136 0 50 27 94 68 118v58c0 22 18 40 40 40h56c22 0 40-18 40-40v-58c41-24 68-68 68-118 0-75-61-136-136-136zm40 294h-80v-40h80v40zm40-80c0 11-9 20-20 20h-40c-11 0-20-9-20-20v-20c0-22 18-40 40-40h40c22 0 40 18 40 40v20z"/>
    <circle cx="256" cy="256" r="40"/>
  </g>
  <text x="256" y="420" font-family="Arial, sans-serif" font-size="64" font-weight="bold" fill="#ffffff" text-anchor="middle">AI</text>
</svg>
